<svg width="17" height="18" viewBox="0 0 17 18" fill="none" xmlns="http://www.w3.org/2000/svg">
<path d="M7.07653 14.0027C8.46856 14.0027 9.75223 13.5429 10.8025 12.7766L14.7536 16.8125C14.9369 16.9999 15.1787 17.0935 15.4371 17.0935C15.9789 17.0935 16.3623 16.6678 16.3623 16.1229C16.3623 15.8674 16.279 15.6205 16.0956 15.4417L12.1695 11.4228C12.9948 10.3159 13.4866 8.94503 13.4866 7.45497C13.4866 3.85329 10.6025 0.907227 7.07653 0.907227C3.55893 0.907227 0.666504 3.84477 0.666504 7.45497C0.666504 11.0567 3.5506 14.0027 7.07653 14.0027ZM7.07653 12.5893C4.3258 12.5893 2.0502 10.2648 2.0502 7.45497C2.0502 4.64515 4.3258 2.32065 7.07653 2.32065C9.82725 2.32065 12.1029 4.64515 12.1029 7.45497C12.1029 10.2648 9.82725 12.5893 7.07653 12.5893Z" fill="white"/>
</svg>
