<svg width="17" height="16" viewBox="0 0 17 16" fill="none" xmlns="http://www.w3.org/2000/svg">
<path d="M14.0604 0.503906V15.4953H13.0456C12.8852 15.4953 12.7492 15.4674 12.6376 15.4116C12.533 15.3558 12.4284 15.2616 12.3238 15.1291L3.65117 3.83068C3.66511 4.00503 3.67558 4.17591 3.68255 4.34329C3.68953 4.51068 3.69301 4.6676 3.69301 4.81406V15.4953H1.91455V0.503906H2.9607C3.05137 0.503906 3.12809 0.510881 3.19086 0.524829C3.25363 0.531804 3.30942 0.54924 3.35824 0.577137C3.40706 0.59806 3.45588 0.632932 3.5047 0.681753C3.55353 0.723599 3.60583 0.779393 3.66163 0.849137L12.3342 12.1371C12.3203 11.9558 12.3063 11.7814 12.2924 11.6141C12.2854 11.4397 12.2819 11.2758 12.2819 11.1224V0.503906H14.0604Z" fill="black"/>
<path fill-rule="evenodd" clip-rule="evenodd" d="M17 7.64949L-1.14322e-07 7.64949L0 6.3418L17 6.3418L17 7.64949Z" fill="#021B27"/>
<path fill-rule="evenodd" clip-rule="evenodd" d="M17 10.2647L-1.14322e-07 10.2647L0 8.95703L17 8.95703L17 10.2647Z" fill="#021B27"/>
</svg>
