<svg width="21" height="20" viewBox="0 0 21 20" fill="none" xmlns="http://www.w3.org/2000/svg">
<path d="M10.4622 10.6497C10.4039 10.6414 10.3289 10.6414 10.2622 10.6497C8.79557 10.5997 7.62891 9.39974 7.62891 7.92474C7.62891 6.41641 8.84557 5.19141 10.3622 5.19141C11.8706 5.19141 13.0956 6.41641 13.0956 7.92474C13.0872 9.39974 11.9289 10.5997 10.4622 10.6497Z" stroke="white" stroke-linecap="round" stroke-linejoin="round"/>
<path d="M15.9789 16.1498C14.4956 17.5081 12.5289 18.3331 10.3623 18.3331C8.19561 18.3331 6.22894 17.5081 4.74561 16.1498C4.82894 15.3665 5.32894 14.5998 6.22061 13.9998C8.50394 12.4831 12.2373 12.4831 14.5039 13.9998C15.3956 14.5998 15.8956 15.3665 15.9789 16.1498Z" stroke="white" stroke-linecap="round" stroke-linejoin="round"/>
<path d="M10.3621 18.3337C14.9645 18.3337 18.6955 14.6027 18.6955 10.0003C18.6955 5.39795 14.9645 1.66699 10.3621 1.66699C5.75977 1.66699 2.02881 5.39795 2.02881 10.0003C2.02881 14.6027 5.75977 18.3337 10.3621 18.3337Z" stroke="white" stroke-linecap="round" stroke-linejoin="round"/>
</svg>
