<svg width="100" height="16" viewBox="0 0 100 16" fill="none" xmlns="http://www.w3.org/2000/svg">
<path d="M8.33333 0L10.5375 5.29952L16.2588 5.75819L11.8998 9.49215L13.2315 15.0751L8.33333 12.0833L3.43512 15.0751L4.76687 9.49215L0.407862 5.75819L6.12914 5.29952L8.33333 0Z" fill="#067604"/>
<path d="M26.9998 0L29.204 5.29952L34.9253 5.75819L30.5663 9.49215L31.898 15.0751L26.9998 12.0833L22.1016 15.0751L23.4334 9.49215L19.0744 5.75819L24.7956 5.29952L26.9998 0Z" fill="#067604"/>
<path d="M45.6666 0L47.8708 5.29952L53.5921 5.75819L49.233 9.49215L50.5648 15.0751L45.6666 12.0833L40.7684 15.0751L42.1001 9.49215L37.7411 5.75819L43.4624 5.29952L45.6666 0Z" fill="#067604"/>
<path d="M64.3333 0.904153L66.2169 5.43286L66.2984 5.62868L66.5098 5.64563L71.3989 6.03759L67.6739 9.22845L67.5128 9.36642L67.562 9.57271L68.7001 14.3437L64.5143 11.787L64.3333 11.6765L64.1523 11.787L59.9666 14.3437L61.1046 9.57271L61.1538 9.36642L60.9928 9.22845L57.2678 6.03759L62.1569 5.64563L62.3683 5.62868L62.4497 5.43286L64.3333 0.904153Z" stroke="#D5D5D5" stroke-width="0.694444"/>
<path d="M83.0001 0.904153L84.8837 5.43286L84.9651 5.62868L85.1765 5.64563L90.0657 6.03759L86.3407 9.22845L86.1796 9.36642L86.2288 9.57271L87.3668 14.3437L83.1811 11.787L83.0001 11.6765L82.8191 11.787L78.6333 14.3437L79.7714 9.57271L79.8206 9.36642L79.6595 9.22845L75.9345 6.03759L80.8236 5.64563L81.035 5.62868L81.1165 5.43286L83.0001 0.904153Z" stroke="#D5D5D5" stroke-width="0.694444"/>
</svg>
