<svg width="25" height="24" viewBox="0 0 25 24" fill="none" xmlns="http://www.w3.org/2000/svg">
<path d="M7.42163 1C6.8912 1 6.38249 1.21071 6.00742 1.58579C5.63234 1.96086 5.42163 2.46957 5.42163 3V21C5.42163 21.5304 5.63234 22.0391 6.00742 22.4142C6.38249 22.7893 6.8912 23 7.42163 23H17.4216C17.9521 23 18.4608 22.7893 18.8358 22.4142C19.2109 22.0391 19.4216 21.5304 19.4216 21V3C19.4216 2.46957 19.2109 1.96086 18.8358 1.58579C18.4608 1.21071 17.9521 1 17.4216 1H7.42163ZM17.4216 21H7.42163V3H9.92163L10.4216 4H14.4216L14.9216 3H17.4216V21Z" fill="white"/>
</svg>
