<svg width="26" height="26" viewBox="0 0 26 26" fill="none" xmlns="http://www.w3.org/2000/svg">
<path d="M0 0.84739C0 0.622648 0.0892811 0.407111 0.248203 0.248195C0.407124 0.0892783 0.622668 0 0.847416 0H3.38967C3.57869 5.22187e-05 3.76228 0.0633012 3.91122 0.179689C4.06016 0.296076 4.16592 0.458919 4.21166 0.642322L4.89807 3.38956H24.5751C24.6995 3.38968 24.8224 3.41719 24.935 3.47015C25.0476 3.52311 25.1471 3.60021 25.2266 3.69598C25.306 3.79176 25.3634 3.90384 25.3946 4.02429C25.4258 4.14473 25.4301 4.27057 25.4072 4.39287L22.865 17.9511C22.8286 18.1453 22.7256 18.3207 22.5736 18.4469C22.4217 18.5732 22.2304 18.6424 22.0328 18.6426H6.77933C6.58177 18.6424 6.39048 18.5732 6.23853 18.4469C6.08658 18.3207 5.98352 18.1453 5.94717 17.9511L3.40661 4.41829L2.72868 1.69478H0.847416C0.622668 1.69478 0.407124 1.6055 0.248203 1.44659C0.0892811 1.28767 0 1.07213 0 0.84739ZM5.25737 5.08434L7.48269 16.9478H21.3295L23.5548 5.08434H5.25737ZM8.47416 18.6426C7.57517 18.6426 6.71299 18.9997 6.07731 19.6354C5.44162 20.271 5.0845 21.1332 5.0845 22.0321C5.0845 22.9311 5.44162 23.7933 6.07731 24.4289C6.71299 25.0646 7.57517 25.4217 8.47416 25.4217C9.37316 25.4217 10.2353 25.0646 10.871 24.4289C11.5067 23.7933 11.8638 22.9311 11.8638 22.0321C11.8638 21.1332 11.5067 20.271 10.871 19.6354C10.2353 18.9997 9.37316 18.6426 8.47416 18.6426ZM20.338 18.6426C19.439 18.6426 18.5768 18.9997 17.9411 19.6354C17.3055 20.271 16.9483 21.1332 16.9483 22.0321C16.9483 22.9311 17.3055 23.7933 17.9411 24.4289C18.5768 25.0646 19.439 25.4217 20.338 25.4217C21.237 25.4217 22.0992 25.0646 22.7349 24.4289C23.3705 23.7933 23.7277 22.9311 23.7277 22.0321C23.7277 21.1332 23.3705 20.271 22.7349 19.6354C22.0992 18.9997 21.237 18.6426 20.338 18.6426ZM8.47416 20.3374C8.92366 20.3374 9.35475 20.5159 9.67259 20.8338C9.99043 21.1516 10.169 21.5827 10.169 22.0321C10.169 22.4816 9.99043 22.9127 9.67259 23.2305C9.35475 23.5484 8.92366 23.7269 8.47416 23.7269C8.02467 23.7269 7.59358 23.5484 7.27574 23.2305C6.95789 22.9127 6.77933 22.4816 6.77933 22.0321C6.77933 21.5827 6.95789 21.1516 7.27574 20.8338C7.59358 20.5159 8.02467 20.3374 8.47416 20.3374ZM20.338 20.3374C20.7875 20.3374 21.2186 20.5159 21.5364 20.8338C21.8543 21.1516 22.0328 21.5827 22.0328 22.0321C22.0328 22.4816 21.8543 22.9127 21.5364 23.2305C21.2186 23.5484 20.7875 23.7269 20.338 23.7269C19.8885 23.7269 19.4574 23.5484 19.1396 23.2305C18.8217 22.9127 18.6432 22.4816 18.6432 22.0321C18.6432 21.5827 18.8217 21.1516 19.1396 20.8338C19.4574 20.5159 19.8885 20.3374 20.338 20.3374Z" fill="#08A805"/>
</svg>
