<svg width="21" height="20" viewBox="0 0 21 20" fill="none" xmlns="http://www.w3.org/2000/svg">
<path d="M0.362305 0.666667C0.362305 0.489856 0.432545 0.320286 0.557573 0.195262C0.682601 0.0702379 0.852175 0 1.02899 0H3.02905C3.17777 4.1082e-05 3.3222 0.0498009 3.43937 0.141366C3.55655 0.232932 3.63975 0.361045 3.67574 0.505333L4.21576 2.66667H19.6962C19.7941 2.66676 19.8908 2.6884 19.9794 2.73007C20.068 2.77173 20.1463 2.83239 20.2088 2.90774C20.2713 2.98308 20.3164 3.07127 20.341 3.16602C20.3655 3.26078 20.3689 3.35978 20.3509 3.456L18.3509 14.1227C18.3223 14.2754 18.2412 14.4134 18.1216 14.5127C18.0021 14.6121 17.8516 14.6665 17.6962 14.6667H5.6958C5.54037 14.6665 5.38988 14.6121 5.27034 14.5127C5.15079 14.4134 5.06971 14.2754 5.04112 14.1227L3.04239 3.476L2.50904 1.33333H1.02899C0.852175 1.33333 0.682601 1.2631 0.557573 1.13807C0.432545 1.01305 0.362305 0.843478 0.362305 0.666667ZM4.49843 4L6.24915 13.3333H17.1428L18.8935 4H4.49843ZM7.02918 14.6667C6.32191 14.6667 5.64361 14.9476 5.1435 15.4477C4.64339 15.9478 4.36243 16.6261 4.36243 17.3333C4.36243 18.0406 4.64339 18.7189 5.1435 19.219C5.64361 19.719 6.32191 20 7.02918 20C7.73644 20 8.41474 19.719 8.91485 19.219C9.41497 18.7189 9.69593 18.0406 9.69593 17.3333C9.69593 16.6261 9.41497 15.9478 8.91485 15.4477C8.41474 14.9476 7.73644 14.6667 7.02918 14.6667ZM16.3628 14.6667C15.6555 14.6667 14.9772 14.9476 14.4771 15.4477C13.977 15.9478 13.696 16.6261 13.696 17.3333C13.696 18.0406 13.977 18.7189 14.4771 19.219C14.9772 19.719 15.6555 20 16.3628 20C17.0701 20 17.7484 19.719 18.2485 19.219C18.7486 18.7189 19.0295 18.0406 19.0295 17.3333C19.0295 16.6261 18.7486 15.9478 18.2485 15.4477C17.7484 14.9476 17.0701 14.6667 16.3628 14.6667ZM7.02918 16C7.38281 16 7.72196 16.1405 7.97201 16.3905C8.22207 16.6406 8.36255 16.9797 8.36255 17.3333C8.36255 17.687 8.22207 18.0261 7.97201 18.2761C7.72196 18.5262 7.38281 18.6667 7.02918 18.6667C6.67554 18.6667 6.3364 18.5262 6.08634 18.2761C5.83628 18.0261 5.6958 17.687 5.6958 17.3333C5.6958 16.9797 5.83628 16.6406 6.08634 16.3905C6.3364 16.1405 6.67554 16 7.02918 16ZM16.3628 16C16.7164 16 17.0556 16.1405 17.3056 16.3905C17.5557 16.6406 17.6962 16.9797 17.6962 17.3333C17.6962 17.687 17.5557 18.0261 17.3056 18.2761C17.0556 18.5262 16.7164 18.6667 16.3628 18.6667C16.0092 18.6667 15.67 18.5262 15.42 18.2761C15.1699 18.0261 15.0294 17.687 15.0294 17.3333C15.0294 16.9797 15.1699 16.6406 15.42 16.3905C15.67 16.1405 16.0092 16 16.3628 16Z" fill="white"/>
</svg>
