<svg width="46" height="34" viewBox="0 0 46 34" fill="none" xmlns="http://www.w3.org/2000/svg">
<g filter="url(#filter0_d_274_10446)">
<rect x="4.36315" y="4.26452" width="36.5038" height="24.8649" rx="2.90972" fill="white" stroke="#D9D9D9" stroke-width="0.529041"/>
<path d="M37.4211 15.1871L37.4281 15.1794H36.3211L35.6221 17.6025H35.585L34.7825 15.1794H33.467L35.0498 19.1783L34.3886 20.3972V20.4265H35.4213L37.4211 15.1871Z" fill="black"/>
<path d="M25.1497 15.1794H23.9756V19.1636H25.1497V15.1794Z" fill="black"/>
<path d="M33.2361 18.167V16.5024C33.2361 15.5956 32.7009 15.0974 31.757 15.0974C31.1545 15.0974 30.7389 15.2017 29.9804 15.4319L30.1882 16.3464C30.8795 16.0343 31.1839 15.9007 31.5037 15.9007C31.8899 15.9007 32.0613 16.1757 32.0613 16.5997V16.6291C30.7158 16.8817 30.2995 17.023 30.0399 17.2833C29.8468 17.4764 29.7649 17.7514 29.7649 18.0712C29.7649 18.8366 30.3596 19.2453 30.9166 19.2453C31.3329 19.2453 31.6674 19.0892 32.1208 18.7471L32.2027 19.1634H33.3768L33.2361 18.167ZM32.062 18.1971C31.75 18.3678 31.5715 18.435 31.3637 18.435C31.081 18.435 30.9026 18.2489 30.9026 17.9522C30.9026 17.841 30.925 17.729 31.0139 17.6401C31.1552 17.4988 31.4302 17.3945 32.062 17.2462V18.1971Z" fill="black"/>
<path d="M28.071 15.0974C27.64 15.0974 27.3055 15.2611 26.9263 15.5732V15.1793H25.7522V20.4264H26.9263V19.1256C27.1495 19.1851 27.3573 19.2152 27.6099 19.2152C28.6581 19.2152 29.602 18.442 29.602 17.0671C29.602 15.8335 28.9184 15.0974 28.071 15.0974ZM27.3272 18.4791C27.1936 18.4791 27.0669 18.4644 26.9256 18.4196V16.2645C27.1712 16.0938 27.3713 16.0119 27.6239 16.0119C28.0626 16.0119 28.4118 16.3611 28.4118 17.1049C28.4125 18.0558 27.8996 18.4791 27.3272 18.4791Z" fill="black"/>
<path d="M14.0231 13.1272H8.9887C8.33308 13.1272 7.802 13.6632 7.802 14.3237V19.4008C7.802 20.0613 8.33308 20.5973 8.9887 20.5973H14.0231C14.6787 20.5973 15.2091 20.0613 15.2091 19.4008V14.3237C15.2098 13.6625 14.6787 13.1272 14.0231 13.1272Z" fill="#1677FF"/>
<path d="M13.9005 17.8179C13.6045 17.7179 13.2064 17.5646 12.7635 17.403C13.0294 16.9363 13.2421 16.4052 13.382 15.828H11.9217V15.2976H13.7102V15.0016H11.9217V14.1172H11.1919C11.0639 14.1172 11.0639 14.2445 11.0639 14.2445V15.0009H9.25514V15.2969H11.0639V15.8273H9.57V16.1232H12.4668C12.3611 16.4913 12.2184 16.8376 12.0498 17.1518C11.1101 16.839 10.1067 16.5858 9.47694 16.7418C9.07391 16.8418 8.81432 17.0203 8.66178 17.2078C7.96208 18.0663 8.46377 19.3706 9.94155 19.3706C10.8155 19.3706 11.6572 18.8794 12.3094 18.0698C13.2826 18.5414 15.2089 19.3517 15.2089 19.3517V18.1972C15.2096 18.1972 14.9675 18.1776 13.9005 17.8179ZM9.80371 18.8717C8.65129 18.8717 8.31053 17.9565 8.88009 17.4555C9.07041 17.2862 9.41747 17.2036 9.60219 17.1854C10.2865 17.1175 10.9204 17.3806 11.6684 17.7487C11.1429 18.44 10.4733 18.8717 9.80371 18.8717Z" fill="white"/>
<path d="M19.9397 13.9233H18.3639L16.6028 19.1634H17.688L17.9854 18.1377H19.8508L20.1335 19.1634H21.5231L19.9397 13.9233ZM18.2303 17.2826L18.9286 14.8672H18.958L19.6192 17.2826H18.2303Z" fill="black"/>
<path d="M23.1724 13.7373H21.9983V19.1628H23.1724V13.7373Z" fill="black"/>
<path d="M23.8862 14.2207C23.8862 14.607 24.1689 14.8673 24.5628 14.8673C24.9568 14.8673 25.2395 14.607 25.2395 14.2207C25.2395 13.8415 24.9568 13.5742 24.5628 13.5742C24.1689 13.5742 23.8862 13.8415 23.8862 14.2207Z" fill="#1677FF"/>
</g>
<defs>
<filter id="filter0_d_274_10446" x="0.0995848" y="0.000952005" width="45.0311" height="33.3921" filterUnits="userSpaceOnUse" color-interpolation-filters="sRGB">
<feFlood flood-opacity="0" result="BackgroundImageFix"/>
<feColorMatrix in="SourceAlpha" type="matrix" values="0 0 0 0 0 0 0 0 0 0 0 0 0 0 0 0 0 0 127 0" result="hardAlpha"/>
<feOffset/>
<feGaussianBlur stdDeviation="1.99952"/>
<feComposite in2="hardAlpha" operator="out"/>
<feColorMatrix type="matrix" values="0 0 0 0 0 0 0 0 0 0 0 0 0 0 0 0 0 0 0.07 0"/>
<feBlend mode="normal" in2="BackgroundImageFix" result="effect1_dropShadow_274_10446"/>
<feBlend mode="normal" in="SourceGraphic" in2="effect1_dropShadow_274_10446" result="shape"/>
</filter>
</defs>
</svg>
