<svg width="46" height="34" viewBox="0 0 46 34" fill="none" xmlns="http://www.w3.org/2000/svg">
<g filter="url(#filter0_d_274_10442)">
<rect x="4.29724" y="4.65905" width="36.5038" height="24.8649" rx="2.90972" fill="white" stroke="#D9D9D9" stroke-width="0.529041"/>
<path fill-rule="evenodd" clip-rule="evenodd" d="M26.3626 22.2178C26.5711 21.6885 27.0351 20.5022 26.8144 20.2147H26.816C26.5964 19.9267 25.3633 20.0778 24.8087 20.1458L24.8075 20.146C24.6388 20.1667 24.6128 20.0167 24.7645 19.9082C25.7493 19.2016 27.3628 19.4037 27.5502 19.6423C27.7375 19.8809 27.4991 21.5327 26.5767 22.3214C26.4348 22.4423 26.2993 22.3777 26.3626 22.2178ZM19.7359 23.0347C21.8807 23.0347 24.3784 22.343 26.0989 21.0465V21.049C26.3836 20.8303 26.1395 20.5089 25.849 20.6348C23.971 21.4438 21.955 21.866 19.9168 21.8774C17.089 21.8774 14.3537 21.0854 12.1407 19.7708C11.9469 19.6556 11.8025 19.8586 11.9647 20.0069C14.0951 21.9698 16.8666 23.0496 19.7359 23.0347Z" fill="#FF9900"/>
<path fill-rule="evenodd" clip-rule="evenodd" d="M33.7606 19.1528H34.674H34.6748C34.7704 19.1546 34.8498 19.0779 34.8533 18.9804V16.395C34.8533 16.0702 34.8703 15.777 34.9985 15.4837C35.0865 15.2607 35.2938 15.1105 35.529 15.0994C36.1133 15.0994 36.1077 15.7532 36.1033 16.2668C36.1029 16.3102 36.1025 16.3525 36.1025 16.3933V19.002C36.1138 19.0856 36.1821 19.1491 36.2648 19.1528H37.1863C37.2737 19.1546 37.3489 19.0902 37.3623 19.002V15.9791C37.3623 15.5144 37.3623 14.8674 37.123 14.483C36.8642 14.0688 36.4635 13.9172 36.053 13.9172C35.4203 13.9172 35.0609 14.2304 34.8046 14.8873H34.7868V14.1525C34.7683 14.0757 34.702 14.0208 34.6245 14.0183H33.7744C33.6846 14.016 33.608 14.0845 33.5984 14.1757V18.9804C33.5995 19.0725 33.6705 19.1479 33.7606 19.1528ZM32.9008 16.6327C32.9008 15.1167 32.1651 13.9238 30.8047 13.9238C29.4792 13.9238 28.7435 15.0968 28.7435 16.5822C28.7435 18.0675 29.4703 19.2604 30.8047 19.2604C32.0897 19.2604 32.9008 18.0981 32.9008 16.6327ZM30.0949 16.4306C30.0949 15.8441 30.1379 14.9047 30.8136 14.9047C31.104 14.9047 31.3093 15.0381 31.4123 15.3694C31.5323 15.753 31.5494 16.2384 31.5494 16.6427C31.5494 17.259 31.5226 18.2697 30.8047 18.2697C30.0946 18.2697 30.0948 17.0443 30.0949 16.45L30.0949 16.4306ZM12.9544 19.1627H13.8703H13.8711C13.917 19.1638 13.9615 19.1461 13.9947 19.1137C14.0279 19.0812 14.0471 19.0365 14.0479 18.9895V16.4439L14.0479 16.404C14.0475 15.8505 14.047 15.1184 14.6806 15.1184C15.2664 15.1184 15.2574 15.7617 15.25 16.2811L15.25 16.2811C15.2492 16.3371 15.2485 16.3917 15.2485 16.4439V18.9904C15.25 19.0823 15.3208 19.1575 15.4107 19.1627H16.329C16.3748 19.1636 16.4191 19.1458 16.4521 19.1134C16.4851 19.0809 16.5042 19.0363 16.505 18.9895V16.4439L16.5049 16.3834C16.5044 16.1136 16.5036 15.7497 16.591 15.5235C16.6801 15.2924 16.8954 15.1376 17.1386 15.13C17.4038 15.13 17.609 15.2212 17.6772 15.5442C17.712 15.6997 17.7075 16.0602 17.7045 16.2992C17.7038 16.3556 17.7031 16.4053 17.7031 16.4439V18.9904C17.7043 19.0825 17.7753 19.1579 17.8654 19.1627H18.7812C18.8272 19.1638 18.8717 19.1461 18.9049 19.1137C18.9381 19.0812 18.9572 19.0365 18.9581 18.9895V15.9584C18.9581 15.8846 18.9593 15.8092 18.9606 15.733V15.7329V15.7328V15.7327V15.7327V15.7326C18.9681 15.2801 18.976 14.7983 18.7269 14.4524C18.4248 14.06 17.939 13.8645 17.4561 13.9409C16.9731 14.0173 16.568 14.3537 16.3963 14.821C16.1392 14.2138 15.7717 13.9313 15.2071 13.9313C14.6425 13.9313 14.2231 14.2138 14.0009 14.821H13.9838V14.1939C13.979 14.1046 13.9091 14.0332 13.8216 14.0283H12.9674C12.8731 14.0273 12.7953 14.1035 12.7922 14.1997V19.0045C12.8005 19.0909 12.8695 19.1582 12.9544 19.1627ZM11.3605 19.1991C11.3002 19.2525 11.2135 19.2615 11.1439 19.2215C10.8843 19.0009 10.8061 18.8817 10.6859 18.6987C10.6653 18.6672 10.6433 18.6338 10.6191 18.5977C10.1153 19.1212 9.75919 19.2778 9.10781 19.2778C8.33637 19.2778 7.73608 18.7915 7.73608 17.819C7.73608 17.0593 8.14168 16.5432 8.70951 16.2897C9.12881 16.1018 9.68826 16.0435 10.1719 15.9931L10.172 15.9931L10.172 15.9931C10.2619 15.9837 10.3492 15.9746 10.4325 15.965V15.8441C10.4325 15.8211 10.4327 15.7976 10.4328 15.7739V15.7739V15.7739V15.7738V15.7738L10.4329 15.7736C10.4345 15.5674 10.4362 15.3378 10.3213 15.1648C10.2094 14.9925 9.99687 14.9221 9.80705 14.9221C9.45743 14.9221 9.14593 15.1051 9.06968 15.4837C9.06002 15.572 8.99348 15.6427 8.90744 15.656L8.02649 15.5574C7.98253 15.551 7.94307 15.5265 7.91732 15.4895C7.89157 15.4526 7.88177 15.4065 7.89021 15.3619C8.09382 14.2618 9.06725 13.9296 9.93928 13.9296C10.3854 13.9296 10.9679 14.0506 11.3183 14.3952C11.7297 14.7885 11.7271 15.3034 11.7244 15.8661C11.7241 15.9126 11.7239 15.9594 11.7239 16.0064V17.4636C11.7239 17.856 11.8665 18.0512 12.0167 18.2569C12.0345 18.2813 12.0525 18.3059 12.0703 18.3309C12.1287 18.4138 12.1417 18.5173 12.0703 18.5794C11.8829 18.7393 11.5503 19.0342 11.3678 19.2007L11.3605 19.1991ZM10.4364 16.9177L10.4364 16.963V16.963C10.4367 17.3076 10.437 17.5998 10.2652 17.9118C10.1192 18.1752 9.88802 18.3376 9.63006 18.3376C9.27882 18.3376 9.07358 18.0642 9.07358 17.6583C9.07358 16.8613 9.77364 16.7164 10.4364 16.7164V16.9177ZM24.0271 18.2535L24.0273 18.2539C24.0451 18.2783 24.063 18.3027 24.0807 18.3277C24.1424 18.4138 24.1554 18.5149 24.0767 18.5721C23.8893 18.732 23.5567 19.0277 23.3742 19.1934C23.3135 19.2461 23.2271 19.2547 23.1576 19.2149C22.897 18.9934 22.8197 18.876 22.6978 18.6905L22.6978 18.6905C22.6775 18.6595 22.6559 18.6267 22.632 18.5911C22.129 19.1147 21.7705 19.2712 21.1215 19.2712C20.3501 19.2712 19.7498 18.785 19.7498 17.8133C19.7498 17.0528 20.153 16.5367 20.7273 16.2832C21.1475 16.0946 21.7101 16.0365 22.1952 15.9865C22.2832 15.9774 22.3687 15.9686 22.4503 15.9593V15.8408C22.4503 15.8179 22.4504 15.7945 22.4506 15.7707C22.4522 15.5644 22.454 15.3348 22.3383 15.1624C22.2296 14.9901 22.013 14.9188 21.824 14.9188C21.4744 14.9188 21.1645 15.1019 21.0875 15.4805C21.0775 15.5687 21.0111 15.6392 20.9252 15.6528L20.037 15.555C19.9927 15.5488 19.9529 15.5243 19.9269 15.4871C19.901 15.4499 19.8912 15.4035 19.8999 15.3587C20.1043 14.2578 21.0777 13.9264 21.9498 13.9264C22.3951 13.9264 22.9775 14.0474 23.3288 14.392C23.741 14.7833 23.7381 15.2942 23.7349 15.854V15.854C23.7347 15.9034 23.7344 15.9531 23.7344 16.0032V17.4612C23.7344 17.8528 23.8769 18.0479 24.0271 18.2535ZM21.6455 18.3325C21.9027 18.3325 22.1347 18.1702 22.2799 17.9076C22.4522 17.5939 22.4521 17.3003 22.4518 16.9515V16.9515L22.4518 16.9143V16.7122C21.7891 16.7122 21.089 16.8563 21.089 17.6541C21.089 18.0592 21.2943 18.3325 21.6455 18.3325ZM24.8562 14.1831V14.8674C24.8557 14.9143 24.8741 14.9594 24.9071 14.9921C24.94 15.0248 24.9847 15.0423 25.0306 15.0405H26.6076L24.7994 17.6914C24.7169 17.8336 24.6779 17.9977 24.6875 18.1627V18.8627C24.6875 18.9638 24.797 19.079 24.9016 19.0218C25.8989 18.4937 27.0848 18.4916 28.0839 19.016C28.1983 19.0765 28.3062 18.9597 28.3062 18.8586V18.123C28.3031 18.0105 28.2412 17.9084 28.144 17.8554C27.6175 17.553 27.005 17.4644 26.4259 17.4785L27.9866 15.2037C28.1318 14.9999 28.2129 14.8707 28.2129 14.7721V14.1831C28.2134 14.1363 28.1951 14.0914 28.1623 14.0587C28.1295 14.026 28.0851 14.0084 28.0393 14.01H25.0274C24.9815 14.0073 24.9367 14.0247 24.9041 14.0577C24.8715 14.0907 24.8541 14.1363 24.8562 14.1831Z" fill="black"/>
</g>
<defs>
<filter id="filter0_d_274_10442" x="0.0336668" y="0.395483" width="45.0311" height="33.3921" filterUnits="userSpaceOnUse" color-interpolation-filters="sRGB">
<feFlood flood-opacity="0" result="BackgroundImageFix"/>
<feColorMatrix in="SourceAlpha" type="matrix" values="0 0 0 0 0 0 0 0 0 0 0 0 0 0 0 0 0 0 127 0" result="hardAlpha"/>
<feOffset/>
<feGaussianBlur stdDeviation="1.99952"/>
<feComposite in2="hardAlpha" operator="out"/>
<feColorMatrix type="matrix" values="0 0 0 0 0 0 0 0 0 0 0 0 0 0 0 0 0 0 0.07 0"/>
<feBlend mode="normal" in2="BackgroundImageFix" result="effect1_dropShadow_274_10442"/>
<feBlend mode="normal" in="SourceGraphic" in2="effect1_dropShadow_274_10442" result="shape"/>
</filter>
</defs>
</svg>
