<svg width="46" height="34" viewBox="0 0 46 34" fill="none" xmlns="http://www.w3.org/2000/svg">
<g filter="url(#filter0_d_274_10445)">
<rect x="4.33019" y="4.26452" width="36.5038" height="24.8649" rx="2.90972" fill="white" stroke="#D9D9D9" stroke-width="0.529041"/>
<path fill-rule="evenodd" clip-rule="evenodd" d="M12.8967 13.4517C13.3941 13.4937 13.8914 13.2 14.2022 12.8277C14.5079 12.4448 14.7099 11.9309 14.6581 11.4065C14.2178 11.4275 13.6738 11.7002 13.363 12.083C13.078 12.4134 12.8345 12.9483 12.8967 13.4517ZM18.8131 20.2063V12.0306H21.8437C23.4083 12.0306 24.5014 13.1214 24.5014 14.7156C24.5014 16.3098 23.3876 17.4111 21.8023 17.4111H20.0668V20.2063H18.8131ZM14.653 13.5513C14.2148 13.5258 13.815 13.6847 13.4921 13.8131C13.2843 13.8957 13.1083 13.9656 12.9744 13.9656C12.8242 13.9656 12.6409 13.8919 12.4352 13.8092C12.1656 13.7008 11.8574 13.5769 11.5342 13.5828C10.7934 13.5933 10.1044 14.0181 9.72617 14.6946C8.94907 16.0476 9.52412 18.0508 10.2753 19.1521C10.6431 19.6975 11.0835 20.2953 11.6637 20.2744C11.919 20.2646 12.1026 20.1857 12.2927 20.1041C12.5114 20.0101 12.7387 19.9125 13.0936 19.9125C13.4362 19.9125 13.6535 20.0076 13.8621 20.0989C14.0605 20.1857 14.251 20.269 14.5338 20.2639C15.1348 20.2534 15.5129 19.7185 15.8808 19.1731C16.2777 18.5877 16.4522 18.0165 16.4786 17.9298L16.4817 17.9197C16.4811 17.9191 16.4762 17.9168 16.4676 17.9128L16.4676 17.9128L16.4675 17.9128L16.4675 17.9128C16.3348 17.8513 15.3206 17.3813 15.3109 16.121C15.3011 15.0631 16.1153 14.5271 16.2435 14.4428C16.2513 14.4376 16.2566 14.4342 16.259 14.4324C15.7409 13.6562 14.9327 13.5723 14.653 13.5513ZM26.7913 20.2691C27.5788 20.2691 28.3092 19.8653 28.6408 19.2255H28.6667V20.2062H29.8272V16.1367C29.8272 14.9568 28.8946 14.1964 27.4596 14.1964C26.1282 14.1964 25.1439 14.9672 25.1076 16.0266H26.237C26.3302 15.5231 26.7913 15.1927 27.4233 15.1927C28.1901 15.1927 28.6201 15.5546 28.6201 16.2206V16.6716L27.0555 16.766C25.5998 16.8551 24.8123 17.4582 24.8123 18.5071C24.8123 19.5664 25.6257 20.2691 26.7913 20.2691ZM27.1279 19.299C26.4596 19.299 26.0348 18.9739 26.0348 18.4757C26.0348 17.9618 26.4441 17.6628 27.2264 17.6156L28.6199 17.5265V17.988C28.6199 18.7536 27.9775 19.299 27.1279 19.299ZM33.6764 20.5261C33.1739 21.9577 32.5988 22.4297 31.3762 22.4297C31.2829 22.4297 30.9721 22.4192 30.8996 22.3982V21.4176C30.9773 21.4281 31.1689 21.4385 31.2674 21.4385C31.8217 21.4385 32.1325 21.2026 32.3242 20.589L32.4382 20.2271L30.3141 14.275H31.6248L33.1013 19.1049H33.1272L34.6037 14.275H35.8782L33.6764 20.5261ZM20.0667 13.1003H21.5121C22.6 13.1003 23.2217 13.6876 23.2217 14.7208C23.2217 15.7539 22.6 16.3464 21.5069 16.3464H20.0667V13.1003Z" fill="black"/>
</g>
<defs>
<filter id="filter0_d_274_10445" x="0.0666258" y="0.000952005" width="45.0311" height="33.3921" filterUnits="userSpaceOnUse" color-interpolation-filters="sRGB">
<feFlood flood-opacity="0" result="BackgroundImageFix"/>
<feColorMatrix in="SourceAlpha" type="matrix" values="0 0 0 0 0 0 0 0 0 0 0 0 0 0 0 0 0 0 127 0" result="hardAlpha"/>
<feOffset/>
<feGaussianBlur stdDeviation="1.99952"/>
<feComposite in2="hardAlpha" operator="out"/>
<feColorMatrix type="matrix" values="0 0 0 0 0 0 0 0 0 0 0 0 0 0 0 0 0 0 0.07 0"/>
<feBlend mode="normal" in2="BackgroundImageFix" result="effect1_dropShadow_274_10445"/>
<feBlend mode="normal" in="SourceGraphic" in2="effect1_dropShadow_274_10445" result="shape"/>
</filter>
</defs>
</svg>
