<svg width="46" height="34" viewBox="0 0 46 34" fill="none" xmlns="http://www.w3.org/2000/svg">
<g filter="url(#filter0_d_274_10440)">
<rect x="4.26452" y="4.65905" width="36.5038" height="24.8649" rx="2.90972" fill="white" stroke="#D9D9D9" stroke-width="0.529041"/>
<path fill-rule="evenodd" clip-rule="evenodd" d="M21.4902 21.0678V17.8714H23.14C23.816 17.8714 24.3866 17.6449 24.8517 17.1982L24.9633 17.0849C25.813 16.1599 25.7572 14.719 24.8517 13.8633C24.399 13.4103 23.7788 13.1649 23.14 13.1775H20.4917V21.0678H21.4902ZM21.4904 16.9025V14.1465H23.1652C23.525 14.1465 23.8661 14.285 24.1204 14.5366C24.6601 15.0652 24.6725 15.9461 24.1515 16.4935C23.8971 16.7641 23.5374 16.9151 23.1652 16.9025H21.4904ZM29.6211 16.0908C29.1932 15.6944 28.6102 15.493 27.8721 15.493C26.9232 15.493 26.21 15.8454 25.7386 16.5438L26.6193 17.1038C26.9418 16.6256 27.3822 16.3865 27.9404 16.3865C28.2939 16.3865 28.635 16.5186 28.9017 16.7577C29.1622 16.9843 29.311 17.3115 29.311 17.6575V17.8903C28.9265 17.6764 28.4427 17.5631 27.8473 17.5631C27.1527 17.5631 26.5945 17.7267 26.179 18.0602C25.7635 18.3937 25.5526 18.8342 25.5526 19.3942C25.5402 19.9038 25.7572 20.3883 26.1418 20.7155C26.5325 21.0679 27.0287 21.2441 27.6116 21.2441C28.3001 21.2441 28.8458 20.9357 29.2614 20.3191H29.3048V21.0679H30.2599V17.7393C30.2599 17.0409 30.049 16.4872 29.6211 16.0908ZM26.9111 20.0738C26.7064 19.9228 26.5823 19.6774 26.5823 19.4132C26.5823 19.1174 26.7188 18.872 26.9855 18.677C27.2585 18.4819 27.5996 18.3812 28.0028 18.3812C28.5611 18.3749 28.9953 18.5008 29.3055 18.7525C29.3055 19.1803 29.138 19.5516 28.8092 19.8662C28.5115 20.1682 28.1083 20.3381 27.6865 20.3381C27.4073 20.3444 27.1344 20.25 26.9111 20.0738ZM32.4058 23.44L35.7425 15.6692H34.6571L33.1128 19.5452H33.0942L31.5127 15.6692H30.4274L32.6167 20.7218L31.3763 23.44H32.4058Z" fill="#3C4043"/>
<path d="M18.0429 17.1792C18.0429 16.8708 18.0181 16.5625 17.9685 16.2605H13.7573V18.0034H16.1699C16.0707 18.5634 15.7482 19.0668 15.2768 19.3814V20.514H16.7157C17.5592 19.7275 18.0429 18.5634 18.0429 17.1792Z" fill="#4285F4"/>
<path d="M13.7577 21.6091C14.9609 21.6091 15.978 21.2064 16.716 20.5142L15.2772 19.3816C14.874 19.6585 14.3593 19.8158 13.7577 19.8158C12.5917 19.8158 11.6056 19.0167 11.2521 17.947H9.76978V19.1174C10.5264 20.6464 12.0707 21.6091 13.7577 21.6091Z" fill="#34A853"/>
<path d="M11.2522 17.9468C11.0661 17.3868 11.0661 16.7765 11.2522 16.2102V15.0461H9.76971C9.1308 16.3235 9.1308 17.8336 9.76971 19.1109L11.2522 17.9468Z" fill="#FBBC04"/>
<path d="M13.7577 14.3416C14.3965 14.329 15.0105 14.5744 15.4694 15.0212L16.747 13.725C15.9346 12.9574 14.8678 12.5358 13.7577 12.5484C12.0707 12.5484 10.5264 13.5174 9.76978 15.0464L11.2521 16.2167C11.6056 15.1407 12.5917 14.3416 13.7577 14.3416Z" fill="#EA4335"/>
</g>
<defs>
<filter id="filter0_d_274_10440" x="0.000952005" y="0.395483" width="45.0311" height="33.3921" filterUnits="userSpaceOnUse" color-interpolation-filters="sRGB">
<feFlood flood-opacity="0" result="BackgroundImageFix"/>
<feColorMatrix in="SourceAlpha" type="matrix" values="0 0 0 0 0 0 0 0 0 0 0 0 0 0 0 0 0 0 127 0" result="hardAlpha"/>
<feOffset/>
<feGaussianBlur stdDeviation="1.99952"/>
<feComposite in2="hardAlpha" operator="out"/>
<feColorMatrix type="matrix" values="0 0 0 0 0 0 0 0 0 0 0 0 0 0 0 0 0 0 0.07 0"/>
<feBlend mode="normal" in2="BackgroundImageFix" result="effect1_dropShadow_274_10440"/>
<feBlend mode="normal" in="SourceGraphic" in2="effect1_dropShadow_274_10440" result="shape"/>
</filter>
</defs>
</svg>
