<svg width="46" height="34" viewBox="0 0 46 34" fill="none" xmlns="http://www.w3.org/2000/svg">
<g filter="url(#filter0_d_280_20232)">
<rect x="4.29736" y="4.26452" width="36.5038" height="24.8649" rx="2.90972" fill="white" stroke="#D9D9D9" stroke-width="0.529041"/>
<path fill-rule="evenodd" clip-rule="evenodd" d="M27.4971 23.8984C31.4847 23.8984 34.7172 20.6283 34.7172 16.5944C34.7172 12.5606 31.4847 9.29053 27.4971 9.29053C25.71 9.29053 24.0745 9.94736 22.8137 11.0354C21.5529 9.94743 19.9175 9.29065 18.1305 9.29065C14.1429 9.29065 10.9104 12.5607 10.9104 16.5946C10.9104 20.6284 14.1429 23.8985 18.1305 23.8985C19.9176 23.8985 21.5531 23.2417 22.8139 22.1536C24.0746 23.2416 25.71 23.8984 27.4971 23.8984Z" fill="#ED0006"/>
<path fill-rule="evenodd" clip-rule="evenodd" d="M22.8138 22.1536C24.3662 20.8139 25.3506 18.8205 25.3506 16.5944C25.3506 14.3684 24.3662 12.375 22.8138 11.0353C24.0746 9.94733 25.71 9.29053 27.4971 9.29053C31.4847 9.29053 34.7172 12.5606 34.7172 16.5944C34.7172 20.6283 31.4847 23.8984 27.4971 23.8984C25.71 23.8984 24.0746 23.2416 22.8138 22.1536Z" fill="#F9A000"/>
<path fill-rule="evenodd" clip-rule="evenodd" d="M22.8138 22.1533C24.3662 20.8137 25.3506 18.8202 25.3506 16.5942C25.3506 14.3682 24.3662 12.3748 22.8138 11.0352C21.2614 12.3748 20.2771 14.3682 20.2771 16.5942C20.2771 18.8202 21.2614 20.8137 22.8138 22.1533Z" fill="#FF5E00"/>
</g>
<defs>
<filter id="filter0_d_280_20232" x="0.0337889" y="0.000952005" width="45.0309" height="33.3921" filterUnits="userSpaceOnUse" color-interpolation-filters="sRGB">
<feFlood flood-opacity="0" result="BackgroundImageFix"/>
<feColorMatrix in="SourceAlpha" type="matrix" values="0 0 0 0 0 0 0 0 0 0 0 0 0 0 0 0 0 0 127 0" result="hardAlpha"/>
<feOffset/>
<feGaussianBlur stdDeviation="1.99952"/>
<feComposite in2="hardAlpha" operator="out"/>
<feColorMatrix type="matrix" values="0 0 0 0 0 0 0 0 0 0 0 0 0 0 0 0 0 0 0.07 0"/>
<feBlend mode="normal" in2="BackgroundImageFix" result="effect1_dropShadow_280_20232"/>
<feBlend mode="normal" in="SourceGraphic" in2="effect1_dropShadow_280_20232" result="shape"/>
</filter>
</defs>
</svg>
