<svg width="46" height="34" viewBox="0 0 46 34" fill="none" xmlns="http://www.w3.org/2000/svg">
<g filter="url(#filter0_d_274_10441)">
<rect x="4.33019" y="4.65905" width="36.5038" height="24.8649" rx="2.90972" fill="#5A31F4" stroke="#D9D9D9" stroke-width="0.529041"/>
<path d="M24.9147 16.0982C24.9147 17.7277 23.7722 18.891 22.1757 18.891H20.6716C20.655 18.891 20.6386 18.8943 20.6232 18.9006C20.6079 18.907 20.594 18.9164 20.5822 18.9281C20.5705 18.9399 20.5613 18.9539 20.555 18.9692C20.5487 18.9846 20.5455 19.0011 20.5455 19.0177V21.1594C20.5455 21.1929 20.5323 21.225 20.5087 21.2487C20.485 21.2725 20.453 21.2859 20.4195 21.2861H19.367C19.342 21.2859 19.3175 21.2784 19.2967 21.2645C19.2759 21.2506 19.2597 21.2308 19.2501 21.2077C19.2437 21.1926 19.2404 21.1764 19.2403 21.16V13.4314C19.2402 13.4148 19.2434 13.3983 19.2497 13.383C19.256 13.3676 19.2653 13.3536 19.277 13.3419C19.2887 13.3301 19.3027 13.3208 19.318 13.3144C19.3333 13.308 19.3498 13.3047 19.3664 13.3047H22.1824C23.7722 13.3029 24.9147 14.4662 24.9147 16.0982ZM23.6021 16.0982C23.6021 15.1613 22.9633 14.4766 22.0968 14.4766H20.6716C20.655 14.4766 20.6386 14.4799 20.6232 14.4862C20.6079 14.4926 20.594 14.5019 20.5822 14.5137C20.5705 14.5255 20.5613 14.5395 20.555 14.5548C20.5487 14.5702 20.5455 14.5866 20.5455 14.6032V17.5858C20.5455 17.6192 20.5588 17.6513 20.5825 17.6749C20.6061 17.6985 20.6382 17.7118 20.6716 17.7118H22.0968C22.9633 17.7179 23.6021 17.0326 23.6021 16.0982ZM25.2268 19.8034C25.2158 19.5534 25.2675 19.3048 25.3772 19.0799C25.4868 18.8551 25.6509 18.6612 25.8546 18.5159C26.2652 18.2069 26.9071 18.0471 27.8495 18.0141L28.853 17.9786V17.6824C28.853 17.0889 28.4553 16.838 27.8164 16.838C27.1776 16.838 26.7725 17.0644 26.6795 17.4346C26.6719 17.4606 26.6559 17.4834 26.6339 17.4994C26.612 17.5153 26.5854 17.5235 26.5583 17.5227H25.567C25.5487 17.5232 25.5306 17.5197 25.5139 17.5124C25.4971 17.5051 25.4822 17.4942 25.4702 17.4804C25.4581 17.4667 25.4493 17.4505 25.4442 17.4329C25.4392 17.4154 25.438 17.397 25.4409 17.3789C25.5878 16.5014 26.3178 15.8344 27.8617 15.8344C29.5041 15.8344 30.097 16.5993 30.097 18.0594V21.1594C30.0967 21.1932 30.083 21.2255 30.0589 21.2492C30.0349 21.273 30.0024 21.2862 29.9685 21.2861H28.9693C28.9358 21.286 28.9038 21.2728 28.8799 21.2493C28.8682 21.2376 28.859 21.2237 28.8527 21.2083C28.8464 21.193 28.8432 21.1766 28.8432 21.16V20.9281C28.8436 20.9089 28.8381 20.8901 28.8276 20.8741C28.817 20.8581 28.8019 20.8456 28.7841 20.8384C28.7664 20.8312 28.7468 20.8295 28.7281 20.8336C28.7094 20.8377 28.6923 20.8474 28.6792 20.8614C28.3794 21.1875 27.8954 21.4231 27.12 21.4231C25.9794 21.4231 25.2268 20.8296 25.2268 19.8034ZM28.853 19.1315V18.891L27.5533 18.9595C26.8685 18.9944 26.4702 19.2789 26.4702 19.7581C26.4702 20.1913 26.8355 20.4312 27.4737 20.4312C28.3408 20.4312 28.853 19.9631 28.853 19.1315ZM31.1006 23.6285V22.7302C31.1008 22.7114 31.1051 22.6928 31.1133 22.6758C31.1215 22.6588 31.1333 22.6439 31.1479 22.6319C31.1625 22.62 31.1795 22.6115 31.1978 22.6069C31.216 22.6023 31.2351 22.6018 31.2536 22.6054C31.4066 22.6341 31.5626 22.6488 31.7186 22.6494C31.9869 22.6625 32.2518 22.5851 32.4709 22.4298C32.69 22.2745 32.8507 22.0502 32.9272 21.7927L32.9921 21.5859C33.0015 21.5581 33.0015 21.528 32.9921 21.5002L30.9097 16.152C30.9022 16.1326 30.8994 16.1117 30.9018 16.091C30.9041 16.0704 30.9115 16.0506 30.9231 16.0334C30.9348 16.0162 30.9505 16.002 30.9688 15.9922C30.9872 15.9824 31.0076 15.9772 31.0284 15.977H32.0381C32.0639 15.9773 32.089 15.9853 32.1102 16C32.1313 16.0148 32.1476 16.0355 32.1568 16.0596L33.5709 19.8315C33.5798 19.8566 33.5962 19.8783 33.6179 19.8936C33.6396 19.909 33.6655 19.9172 33.6921 19.9172C33.7187 19.9172 33.7446 19.909 33.7663 19.8936C33.788 19.8783 33.8044 19.8566 33.8133 19.8315L35.0414 16.07C35.0499 16.0443 35.0663 16.0219 35.0883 16.0061C35.1103 15.9903 35.1367 15.9818 35.1638 15.9819H36.2083C36.2293 15.982 36.2498 15.9872 36.2683 15.997C36.2868 16.0068 36.3027 16.021 36.3145 16.0382C36.3263 16.0555 36.3338 16.0753 36.3363 16.0961C36.3388 16.1169 36.3363 16.138 36.3289 16.1575L34.1015 22.0969C33.5887 23.4774 32.7094 23.8304 31.7413 23.8304C31.5577 23.8353 31.3741 23.8133 31.1967 23.765C31.1672 23.7571 31.1414 23.7392 31.1238 23.7142C31.1062 23.6893 31.098 23.6589 31.1006 23.6285ZM12.4767 12.8593C11.1501 12.8498 9.87034 13.3491 8.90064 14.2544C8.85918 14.2924 8.83332 14.3445 8.82812 14.4005C8.82292 14.4565 8.83874 14.5124 8.8725 14.5573L9.47279 15.3773C9.49225 15.4046 9.51746 15.4273 9.54664 15.4438C9.57582 15.4604 9.60826 15.4703 9.64168 15.4729C9.67511 15.4755 9.7087 15.4708 9.7401 15.459C9.7715 15.4473 9.79994 15.4288 9.82342 15.4049C10.1721 15.0563 10.5868 14.7807 11.0432 14.5942C11.4996 14.4077 11.9886 14.314 12.4816 14.3187C14.5401 14.3187 15.6153 15.8681 15.6153 17.3979C15.6153 19.0611 14.4857 20.2311 12.8622 20.2544C11.6078 20.2544 10.6624 19.4228 10.6624 18.3243C10.6637 18.0469 10.7265 17.7731 10.8464 17.5229C10.9663 17.2726 11.1403 17.0521 11.3557 16.8772C11.4012 16.8391 11.43 16.7847 11.4358 16.7257C11.4417 16.6666 11.4241 16.6076 11.3869 16.5614L10.756 15.7647C10.7369 15.7406 10.7132 15.7206 10.6863 15.7058C10.6593 15.691 10.6297 15.6818 10.5991 15.6786C10.5685 15.6755 10.5376 15.6785 10.5083 15.6875C10.4789 15.6965 10.4516 15.7113 10.428 15.731C10.0405 16.0432 9.72787 16.4381 9.51292 16.8869C9.29798 17.3356 9.1862 17.8268 9.1858 18.3243C9.1858 20.2152 10.7927 21.6985 12.8512 21.7107H12.8788C15.3228 21.6789 17.09 19.8688 17.09 17.3948C17.09 15.198 15.4721 12.8593 12.4773 12.8593H12.4767Z" fill="white"/>
</g>
<defs>
<filter id="filter0_d_274_10441" x="0.0666258" y="0.395483" width="45.0311" height="33.3921" filterUnits="userSpaceOnUse" color-interpolation-filters="sRGB">
<feFlood flood-opacity="0" result="BackgroundImageFix"/>
<feColorMatrix in="SourceAlpha" type="matrix" values="0 0 0 0 0 0 0 0 0 0 0 0 0 0 0 0 0 0 127 0" result="hardAlpha"/>
<feOffset/>
<feGaussianBlur stdDeviation="1.99952"/>
<feComposite in2="hardAlpha" operator="out"/>
<feColorMatrix type="matrix" values="0 0 0 0 0 0 0 0 0 0 0 0 0 0 0 0 0 0 0.07 0"/>
<feBlend mode="normal" in2="BackgroundImageFix" result="effect1_dropShadow_274_10441"/>
<feBlend mode="normal" in="SourceGraphic" in2="effect1_dropShadow_274_10441" result="shape"/>
</filter>
</defs>
</svg>
