<svg width="46" height="34" viewBox="0 0 46 34" fill="none" xmlns="http://www.w3.org/2000/svg">
<g filter="url(#filter0_d_274_10443)">
<rect x="4.36315" y="4.65905" width="36.5038" height="24.8649" rx="2.90972" fill="white" stroke="#D9D9D9" stroke-width="0.529041"/>
<path fill-rule="evenodd" clip-rule="evenodd" d="M28.3898 12.6794C27.791 12.6794 27.3047 13.1632 27.3047 13.7596C27.3047 14.3563 27.791 14.839 28.3898 14.839C28.9896 14.839 29.4755 14.3563 29.4755 13.7596C29.4755 13.1632 28.9896 12.6794 28.3898 12.6794ZM12.7371 16.2983C12.4588 16.2804 11.8142 16.2387 11.8142 15.6616C11.8142 14.9653 12.7417 14.9653 13.0897 14.9653C13.7019 14.9653 14.4939 15.1449 15.0602 15.3136C15.0602 15.3136 15.3755 15.4245 15.6438 15.5374L15.6689 15.5444V13.6371L15.6354 13.6269C14.9668 13.3944 14.1906 13.1709 12.7508 13.1709C10.2686 13.1709 9.38916 14.6088 9.38916 15.8419C9.38916 16.5519 9.69525 18.2246 12.5371 18.4172L12.5398 18.4173C12.7833 18.4322 13.4184 18.4709 13.4184 19.0651C13.4184 19.5576 12.8947 19.8474 12.0142 19.8474C11.0494 19.8474 10.1128 19.6032 9.54432 19.3706V21.3344C10.3956 21.5572 11.3554 21.6673 12.4804 21.6673C14.9065 21.6673 15.994 20.3066 15.994 18.9574C15.994 17.4282 14.7778 16.4344 12.7371 16.2983ZM20.0626 15.4506L20.0738 15.4217H22.6727C22.5987 15.657 22.135 17.0774 21.0778 18.4112C21.0778 18.4112 22.2552 20.4637 22.5243 21.5772H19.803C19.803 21.5772 19.4779 20.0989 18.8199 19.1167V21.5772H16.5475V13.6182L18.8199 13.1709V17.5623C19.625 16.5934 19.9838 15.6565 20.0626 15.4506ZM33.639 21.5772V13.5627L35.8412 13.1709V21.5772H33.639ZM26.0475 15.3385C24.0131 15.4038 22.9795 16.3124 22.9795 18.1183V21.5772H25.1997V18.7561C25.1997 17.6752 25.3422 17.2118 26.6318 17.1676V15.3705C26.4149 15.3245 26.0475 15.3385 26.0475 15.3385ZM27.2895 21.5773V15.4288H29.4913V21.5773H27.2895ZM30.4245 13.5627L32.6253 13.1709V21.5772H30.4245V13.5627Z" fill="#862165"/>
</g>
<defs>
<filter id="filter0_d_274_10443" x="0.0995848" y="0.395483" width="45.0311" height="33.3921" filterUnits="userSpaceOnUse" color-interpolation-filters="sRGB">
<feFlood flood-opacity="0" result="BackgroundImageFix"/>
<feColorMatrix in="SourceAlpha" type="matrix" values="0 0 0 0 0 0 0 0 0 0 0 0 0 0 0 0 0 0 127 0" result="hardAlpha"/>
<feOffset/>
<feGaussianBlur stdDeviation="1.99952"/>
<feComposite in2="hardAlpha" operator="out"/>
<feColorMatrix type="matrix" values="0 0 0 0 0 0 0 0 0 0 0 0 0 0 0 0 0 0 0.07 0"/>
<feBlend mode="normal" in2="BackgroundImageFix" result="effect1_dropShadow_274_10443"/>
<feBlend mode="normal" in="SourceGraphic" in2="effect1_dropShadow_274_10443" result="shape"/>
</filter>
</defs>
</svg>
