<svg width="46" height="34" viewBox="0 0 46 34" fill="none" xmlns="http://www.w3.org/2000/svg">
<g filter="url(#filter0_d_274_10439)">
<rect x="4.26452" y="4.26452" width="36.5038" height="24.8649" rx="2.90972" fill="white" stroke="#D9D9D9" stroke-width="0.529041"/>
<path fill-rule="evenodd" clip-rule="evenodd" d="M15.2425 21.2025H12.999L11.3167 14.7844C11.2368 14.4891 11.0673 14.2281 10.8179 14.1051C10.1955 13.796 9.50966 13.5499 8.76147 13.4258V13.1787H12.3755C12.8743 13.1787 13.2484 13.5499 13.3108 13.981L14.1837 18.6107L16.426 13.1787H18.6072L15.2425 21.2025ZM19.8542 21.2025H17.7354L19.4801 13.1787H21.5989L19.8542 21.2025ZM24.3399 15.4015C24.4023 14.9694 24.7764 14.7223 25.2128 14.7223C25.8987 14.6602 26.6458 14.7843 27.2692 15.0924L27.6433 13.3648C27.0199 13.1177 26.334 12.9937 25.7116 12.9937C23.6552 12.9937 22.1588 14.1051 22.1588 15.6476C22.1588 16.821 23.2187 17.4372 23.9669 17.8084C24.7764 18.1785 25.0881 18.4256 25.0258 18.7957C25.0258 19.3509 24.4023 19.598 23.7799 19.598C23.0317 19.598 22.2835 19.4129 21.5988 19.1038L21.2247 20.8324C21.9729 21.1405 22.7823 21.2646 23.5305 21.2646C25.8363 21.3255 27.2692 20.2152 27.2692 18.5486C27.2692 16.4498 24.3399 16.3268 24.3399 15.4015ZM34.6845 21.2025L33.0022 13.1787H31.1951C30.821 13.1787 30.447 13.4258 30.3223 13.796L27.207 21.2025H29.3881L29.8235 20.0302H32.5034L32.7528 21.2025H34.6845ZM31.5069 15.3395L32.1293 18.3635H30.3846L31.5069 15.3395Z" fill="#172B85"/>
</g>
<defs>
<filter id="filter0_d_274_10439" x="0.000952005" y="0.000952005" width="45.0311" height="33.3921" filterUnits="userSpaceOnUse" color-interpolation-filters="sRGB">
<feFlood flood-opacity="0" result="BackgroundImageFix"/>
<feColorMatrix in="SourceAlpha" type="matrix" values="0 0 0 0 0 0 0 0 0 0 0 0 0 0 0 0 0 0 127 0" result="hardAlpha"/>
<feOffset/>
<feGaussianBlur stdDeviation="1.99952"/>
<feComposite in2="hardAlpha" operator="out"/>
<feColorMatrix type="matrix" values="0 0 0 0 0 0 0 0 0 0 0 0 0 0 0 0 0 0 0.07 0"/>
<feBlend mode="normal" in2="BackgroundImageFix" result="effect1_dropShadow_274_10439"/>
<feBlend mode="normal" in="SourceGraphic" in2="effect1_dropShadow_274_10439" result="shape"/>
</filter>
</defs>
</svg>
